<mxfile host="app.diagrams.net" modified="2021-09-07T05:05:35.939Z" agent="5.0 (Windows NT 6.1) AppleWebKit/537.36 (KHTML, like Gecko) Chrome/93.0.4577.63 Safari/537.36" etag="fHuNMaCFC9egYyWV4Rmu" version="15.1.0" type="github">
  <diagram id="FxUsTFhcjRBDh8Nh4jDe" name="Page-1">
    <mxGraphModel dx="1648" dy="450" grid="1" gridSize="10" guides="1" tooltips="1" connect="1" arrows="1" fold="1" page="1" pageScale="1" pageWidth="827" pageHeight="1169" math="0" shadow="0">
      <root>
        <mxCell id="0" />
        <mxCell id="1" parent="0" />
        <mxCell id="80nOaFm1nNduMEc1qZU5-18" value="" style="edgeStyle=orthogonalEdgeStyle;rounded=0;orthogonalLoop=1;jettySize=auto;html=1;" edge="1" parent="1" source="80nOaFm1nNduMEc1qZU5-1" target="80nOaFm1nNduMEc1qZU5-17">
          <mxGeometry relative="1" as="geometry" />
        </mxCell>
        <mxCell id="80nOaFm1nNduMEc1qZU5-1" value="Bem-Vindo!&lt;br&gt;Portal do Evento." style="strokeWidth=2;html=1;shape=mxgraph.flowchart.start_1;whiteSpace=wrap;fillColor=#0050ef;strokeColor=#001DBC;fontStyle=1;fontColor=#ffffff;" vertex="1" parent="1">
          <mxGeometry x="-160" y="40" width="100" height="60" as="geometry" />
        </mxCell>
        <mxCell id="80nOaFm1nNduMEc1qZU5-20" value="" style="edgeStyle=orthogonalEdgeStyle;rounded=0;orthogonalLoop=1;jettySize=auto;html=1;" edge="1" parent="1" source="80nOaFm1nNduMEc1qZU5-17">
          <mxGeometry relative="1" as="geometry">
            <mxPoint x="160" y="80" as="targetPoint" />
          </mxGeometry>
        </mxCell>
        <mxCell id="80nOaFm1nNduMEc1qZU5-50" value="" style="edgeStyle=orthogonalEdgeStyle;rounded=0;orthogonalLoop=1;jettySize=auto;html=1;fontSize=14;fontColor=#000000;" edge="1" parent="1" source="80nOaFm1nNduMEc1qZU5-17">
          <mxGeometry relative="1" as="geometry">
            <mxPoint x="30" y="140" as="targetPoint" />
          </mxGeometry>
        </mxCell>
        <mxCell id="80nOaFm1nNduMEc1qZU5-17" value="&lt;font style=&quot;vertical-align: inherit&quot;&gt;&lt;font style=&quot;vertical-align: inherit&quot;&gt;Nome do Evento&lt;/font&gt;&lt;/font&gt;" style="strokeWidth=2;html=1;shape=mxgraph.flowchart.display;whiteSpace=wrap;fillColor=#fa6800;strokeColor=#C73500;fontColor=#000000;" vertex="1" parent="1">
          <mxGeometry x="-20" y="50" width="100" height="60" as="geometry" />
        </mxCell>
        <mxCell id="80nOaFm1nNduMEc1qZU5-25" value="" style="edgeStyle=orthogonalEdgeStyle;rounded=0;orthogonalLoop=1;jettySize=auto;html=1;" edge="1" parent="1" source="80nOaFm1nNduMEc1qZU5-21">
          <mxGeometry relative="1" as="geometry">
            <mxPoint x="190" y="130" as="targetPoint" />
          </mxGeometry>
        </mxCell>
        <mxCell id="80nOaFm1nNduMEc1qZU5-21" value="&lt;font style=&quot;vertical-align: inherit&quot;&gt;&lt;font style=&quot;vertical-align: inherit&quot;&gt;Data do Evento&lt;/font&gt;&lt;/font&gt;" style="strokeWidth=2;html=1;shape=mxgraph.flowchart.display;whiteSpace=wrap;fillColor=#fa6800;strokeColor=#C73500;fontColor=#000000;" vertex="1" parent="1">
          <mxGeometry x="140" y="50" width="100" height="60" as="geometry" />
        </mxCell>
        <mxCell id="80nOaFm1nNduMEc1qZU5-29" value="" style="edgeStyle=orthogonalEdgeStyle;rounded=0;orthogonalLoop=1;jettySize=auto;html=1;" edge="1" parent="1">
          <mxGeometry relative="1" as="geometry">
            <mxPoint x="80" y="150" as="sourcePoint" />
            <mxPoint x="140" y="150" as="targetPoint" />
          </mxGeometry>
        </mxCell>
        <mxCell id="80nOaFm1nNduMEc1qZU5-31" value="" style="edgeStyle=orthogonalEdgeStyle;rounded=0;orthogonalLoop=1;jettySize=auto;html=1;fontSize=14;fontColor=#000000;" edge="1" parent="1" target="80nOaFm1nNduMEc1qZU5-30">
          <mxGeometry relative="1" as="geometry">
            <mxPoint x="190" y="170" as="sourcePoint" />
          </mxGeometry>
        </mxCell>
        <mxCell id="80nOaFm1nNduMEc1qZU5-30" value="&lt;div style=&quot;text-align: center&quot;&gt;&lt;span style=&quot;background-color: rgb(255 , 230 , 204)&quot;&gt;Se a data do evento for posterior á data atual,permitir o evento;senão,alertar que o cadastro não será permitido por data inválida.&lt;/span&gt;&lt;/div&gt;&lt;div&gt;&lt;/div&gt;" style="rhombus;whiteSpace=wrap;html=1;strokeWidth=2;align=right;" vertex="1" parent="1">
          <mxGeometry x="70" y="210" width="240" height="120" as="geometry" />
        </mxCell>
        <mxCell id="80nOaFm1nNduMEc1qZU5-33" value="" style="edgeStyle=orthogonalEdgeStyle;rounded=0;orthogonalLoop=1;jettySize=auto;html=1;fontSize=14;fontColor=#000000;" edge="1" parent="1" source="80nOaFm1nNduMEc1qZU5-32" target="80nOaFm1nNduMEc1qZU5-30">
          <mxGeometry relative="1" as="geometry" />
        </mxCell>
        <mxCell id="80nOaFm1nNduMEc1qZU5-32" value="Data Inválida." style="strokeWidth=2;html=1;shape=mxgraph.flowchart.display;whiteSpace=wrap;fontSize=14;fontColor=#ffffff;align=right;verticalAlign=middle;rotation=0;fillColor=#e51400;strokeColor=#B20000;" vertex="1" parent="1">
          <mxGeometry x="364" y="240" width="100" height="60" as="geometry" />
        </mxCell>
        <mxCell id="80nOaFm1nNduMEc1qZU5-35" value="Não" style="text;html=1;align=center;verticalAlign=middle;resizable=0;points=[];autosize=1;strokeColor=none;fillColor=none;fontSize=14;fontColor=#000000;" vertex="1" parent="1">
          <mxGeometry x="320" y="240" width="40" height="20" as="geometry" />
        </mxCell>
        <mxCell id="80nOaFm1nNduMEc1qZU5-37" value="" style="edgeStyle=orthogonalEdgeStyle;rounded=0;orthogonalLoop=1;jettySize=auto;html=1;fontSize=14;fontColor=#000000;" edge="1" parent="1" source="80nOaFm1nNduMEc1qZU5-36" target="80nOaFm1nNduMEc1qZU5-30">
          <mxGeometry relative="1" as="geometry" />
        </mxCell>
        <mxCell id="80nOaFm1nNduMEc1qZU5-36" value="Evento Agendado" style="strokeWidth=2;html=1;shape=mxgraph.flowchart.display;whiteSpace=wrap;fontSize=14;align=right;verticalAlign=middle;direction=west;fillColor=#6d8764;strokeColor=#3A5431;fontColor=#ffffff;" vertex="1" parent="1">
          <mxGeometry x="-120" y="240" width="120" height="60" as="geometry" />
        </mxCell>
        <mxCell id="80nOaFm1nNduMEc1qZU5-38" value="SIM" style="text;html=1;align=center;verticalAlign=middle;resizable=0;points=[];autosize=1;strokeColor=none;fillColor=none;fontSize=14;fontColor=#000000;" vertex="1" parent="1">
          <mxGeometry x="10" y="250" width="40" height="20" as="geometry" />
        </mxCell>
        <mxCell id="80nOaFm1nNduMEc1qZU5-44" value="" style="edgeStyle=orthogonalEdgeStyle;rounded=0;orthogonalLoop=1;jettySize=auto;html=1;fontSize=14;fontColor=#000000;" edge="1" parent="1" source="80nOaFm1nNduMEc1qZU5-43" target="80nOaFm1nNduMEc1qZU5-30">
          <mxGeometry relative="1" as="geometry" />
        </mxCell>
        <mxCell id="80nOaFm1nNduMEc1qZU5-54" value="" style="edgeStyle=orthogonalEdgeStyle;rounded=0;orthogonalLoop=1;jettySize=auto;html=1;fontSize=14;fontColor=#000000;" edge="1" parent="1" source="80nOaFm1nNduMEc1qZU5-43">
          <mxGeometry relative="1" as="geometry">
            <mxPoint x="350" y="400" as="targetPoint" />
          </mxGeometry>
        </mxCell>
        <mxCell id="80nOaFm1nNduMEc1qZU5-43" value="Qual sua idade?" style="strokeWidth=2;html=1;shape=mxgraph.flowchart.display;whiteSpace=wrap;fontSize=14;align=right;verticalAlign=middle;fillColor=#fa6800;strokeColor=#C73500;fontColor=#000000;" vertex="1" parent="1">
          <mxGeometry x="120" y="360" width="140" height="70" as="geometry" />
        </mxCell>
        <mxCell id="80nOaFm1nNduMEc1qZU5-56" value="" style="edgeStyle=orthogonalEdgeStyle;rounded=0;orthogonalLoop=1;jettySize=auto;html=1;fontSize=14;fontColor=#000000;" edge="1" parent="1" target="80nOaFm1nNduMEc1qZU5-55">
          <mxGeometry relative="1" as="geometry">
            <mxPoint x="400" y="430" as="sourcePoint" />
          </mxGeometry>
        </mxCell>
        <mxCell id="80nOaFm1nNduMEc1qZU5-58" value="" style="edgeStyle=orthogonalEdgeStyle;rounded=0;orthogonalLoop=1;jettySize=auto;html=1;fontSize=14;fontColor=#000000;" edge="1" parent="1" source="80nOaFm1nNduMEc1qZU5-55" target="80nOaFm1nNduMEc1qZU5-57">
          <mxGeometry relative="1" as="geometry" />
        </mxCell>
        <mxCell id="80nOaFm1nNduMEc1qZU5-61" value="" style="edgeStyle=orthogonalEdgeStyle;rounded=0;orthogonalLoop=1;jettySize=auto;html=1;fontSize=14;fontColor=#000000;" edge="1" parent="1" source="80nOaFm1nNduMEc1qZU5-55" target="80nOaFm1nNduMEc1qZU5-60">
          <mxGeometry relative="1" as="geometry" />
        </mxCell>
        <mxCell id="80nOaFm1nNduMEc1qZU5-55" value="&lt;div&gt;&lt;span style=&quot;background-color: rgb(255 , 230 , 204)&quot;&gt;Se o participante for maior de 18 anos,permitir o cadastro;senão ,alertar que o cadastro não é permitido pela idade.&lt;/span&gt;&lt;/div&gt;" style="rhombus;whiteSpace=wrap;html=1;fontSize=14;strokeWidth=2;align=center;" vertex="1" parent="1">
          <mxGeometry x="310" y="490" width="180" height="110" as="geometry" />
        </mxCell>
        <mxCell id="80nOaFm1nNduMEc1qZU5-57" value="Idade insuficiente para o cadastro." style="strokeWidth=2;html=1;shape=mxgraph.flowchart.display;whiteSpace=wrap;fontSize=14;fontColor=#ffffff;align=center;verticalAlign=middle;direction=east;fillColor=#e51400;strokeColor=#B20000;" vertex="1" parent="1">
          <mxGeometry x="340" y="630" width="120" height="70" as="geometry" />
        </mxCell>
        <mxCell id="80nOaFm1nNduMEc1qZU5-59" value="NÃO" style="text;html=1;align=center;verticalAlign=middle;resizable=0;points=[];autosize=1;strokeColor=none;fillColor=none;fontSize=14;fontColor=#000000;" vertex="1" parent="1">
          <mxGeometry x="395" y="600" width="50" height="20" as="geometry" />
        </mxCell>
        <mxCell id="80nOaFm1nNduMEc1qZU5-95" value="" style="edgeStyle=orthogonalEdgeStyle;rounded=0;orthogonalLoop=1;jettySize=auto;html=1;fontSize=14;fontColor=#000000;" edge="1" parent="1" source="80nOaFm1nNduMEc1qZU5-60" target="80nOaFm1nNduMEc1qZU5-71">
          <mxGeometry relative="1" as="geometry" />
        </mxCell>
        <mxCell id="80nOaFm1nNduMEc1qZU5-60" value="Prosseguir com cadastro." style="strokeWidth=2;html=1;shape=mxgraph.flowchart.display;whiteSpace=wrap;fontSize=14;fontColor=#ffffff;align=center;verticalAlign=middle;fillColor=#6d8764;strokeColor=#3A5431;" vertex="1" parent="1">
          <mxGeometry x="160" y="515" width="110" height="65" as="geometry" />
        </mxCell>
        <mxCell id="80nOaFm1nNduMEc1qZU5-62" value="&quot;Evento Tal&quot;" style="html=1;strokeWidth=2;shape=manualInput;whiteSpace=wrap;rounded=1;size=26;arcSize=11;fontSize=14;fontColor=#000000;align=center;verticalAlign=middle;fillColor=#e3c800;strokeColor=#B09500;" vertex="1" parent="1">
          <mxGeometry x="-30" y="130" width="100" height="60" as="geometry" />
        </mxCell>
        <mxCell id="80nOaFm1nNduMEc1qZU5-63" value="&quot;Data Tal &quot;" style="html=1;strokeWidth=2;shape=manualInput;whiteSpace=wrap;rounded=1;size=26;arcSize=11;fontSize=14;fontColor=#000000;align=center;verticalAlign=middle;fillColor=#e3c800;strokeColor=#B09500;" vertex="1" parent="1">
          <mxGeometry x="140" y="120" width="100" height="60" as="geometry" />
        </mxCell>
        <mxCell id="80nOaFm1nNduMEc1qZU5-64" value="&quot;Idade&quot;" style="html=1;strokeWidth=2;shape=manualInput;whiteSpace=wrap;rounded=1;size=26;arcSize=11;fontSize=14;fontColor=#000000;align=center;verticalAlign=middle;fillColor=#e3c800;strokeColor=#B09500;" vertex="1" parent="1">
          <mxGeometry x="350" y="365" width="100" height="65" as="geometry" />
        </mxCell>
        <mxCell id="80nOaFm1nNduMEc1qZU5-65" value="SIM" style="text;html=1;align=center;verticalAlign=middle;resizable=0;points=[];autosize=1;strokeColor=none;fillColor=none;fontSize=14;fontColor=#000000;" vertex="1" parent="1">
          <mxGeometry x="270" y="520" width="40" height="20" as="geometry" />
        </mxCell>
        <mxCell id="80nOaFm1nNduMEc1qZU5-83" value="" style="edgeStyle=orthogonalEdgeStyle;rounded=0;orthogonalLoop=1;jettySize=auto;html=1;fontSize=14;fontColor=#000000;" edge="1" parent="1" source="80nOaFm1nNduMEc1qZU5-68" target="80nOaFm1nNduMEc1qZU5-82">
          <mxGeometry relative="1" as="geometry" />
        </mxCell>
        <mxCell id="80nOaFm1nNduMEc1qZU5-68" value="Insira o nome dos palestrantes " style="swimlane;fontStyle=0;childLayout=stackLayout;horizontal=1;startSize=26;horizontalStack=0;resizeParent=1;resizeParentMax=0;resizeLast=0;collapsible=1;marginBottom=0;align=left;fontSize=14;fontColor=#ffffff;fillColor=#647687;strokeColor=#314354;" vertex="1" parent="1">
          <mxGeometry x="-130" y="487" width="210" height="116" as="geometry" />
        </mxCell>
        <mxCell id="80nOaFm1nNduMEc1qZU5-69" value="Palestrante  A" style="text;strokeColor=#ae4132;fillColor=#fad9d5;spacingLeft=4;spacingRight=4;overflow=hidden;rotatable=0;points=[[0,0.5],[1,0.5]];portConstraint=eastwest;fontSize=12;" vertex="1" parent="80nOaFm1nNduMEc1qZU5-68">
          <mxGeometry y="26" width="210" height="30" as="geometry" />
        </mxCell>
        <mxCell id="80nOaFm1nNduMEc1qZU5-72" value="Palestrante B" style="text;strokeColor=#ae4132;fillColor=#fad9d5;spacingLeft=4;spacingRight=4;overflow=hidden;rotatable=0;points=[[0,0.5],[1,0.5]];portConstraint=eastwest;fontSize=12;" vertex="1" parent="80nOaFm1nNduMEc1qZU5-68">
          <mxGeometry y="56" width="210" height="30" as="geometry" />
        </mxCell>
        <mxCell id="80nOaFm1nNduMEc1qZU5-71" value="Palestrante C" style="text;strokeColor=#ae4132;fillColor=#fad9d5;spacingLeft=4;spacingRight=4;overflow=hidden;rotatable=0;points=[[0,0.5],[1,0.5]];portConstraint=eastwest;fontSize=12;" vertex="1" parent="80nOaFm1nNduMEc1qZU5-68">
          <mxGeometry y="86" width="210" height="30" as="geometry" />
        </mxCell>
        <mxCell id="80nOaFm1nNduMEc1qZU5-97" value="" style="edgeStyle=orthogonalEdgeStyle;rounded=1;orthogonalLoop=1;jettySize=auto;html=1;fontSize=14;fontColor=#000000;" edge="1" parent="1" source="80nOaFm1nNduMEc1qZU5-73" target="80nOaFm1nNduMEc1qZU5-71">
          <mxGeometry relative="1" as="geometry" />
        </mxCell>
        <mxCell id="80nOaFm1nNduMEc1qZU5-73" value="Inserir o nome dos participantes." style="swimlane;fontStyle=0;childLayout=stackLayout;horizontal=1;startSize=26;horizontalStack=0;resizeParent=1;resizeParentMax=0;resizeLast=0;collapsible=1;marginBottom=0;align=center;fontSize=14;fontColor=#ffffff;fillColor=#76608a;strokeColor=#432D57;" vertex="1" parent="1">
          <mxGeometry x="-130" y="637" width="230" height="116" as="geometry" />
        </mxCell>
        <mxCell id="80nOaFm1nNduMEc1qZU5-74" value="Participante A" style="text;strokeColor=#10739e;fillColor=#b1ddf0;spacingLeft=4;spacingRight=4;overflow=hidden;rotatable=0;points=[[0,0.5],[1,0.5]];portConstraint=eastwest;fontSize=12;" vertex="1" parent="80nOaFm1nNduMEc1qZU5-73">
          <mxGeometry y="26" width="230" height="30" as="geometry" />
        </mxCell>
        <mxCell id="80nOaFm1nNduMEc1qZU5-91" value="Participante B" style="text;strokeColor=#10739e;fillColor=#b1ddf0;spacingLeft=4;spacingRight=4;overflow=hidden;rotatable=0;points=[[0,0.5],[1,0.5]];portConstraint=eastwest;fontSize=12;" vertex="1" parent="80nOaFm1nNduMEc1qZU5-73">
          <mxGeometry y="56" width="230" height="30" as="geometry" />
        </mxCell>
        <mxCell id="80nOaFm1nNduMEc1qZU5-96" value="Participante C" style="text;strokeColor=#10739e;fillColor=#b1ddf0;spacingLeft=4;spacingRight=4;overflow=hidden;rotatable=0;points=[[0,0.5],[1,0.5]];portConstraint=eastwest;fontSize=12;" vertex="1" parent="80nOaFm1nNduMEc1qZU5-73">
          <mxGeometry y="86" width="230" height="30" as="geometry" />
        </mxCell>
        <mxCell id="80nOaFm1nNduMEc1qZU5-86" value="" style="edgeStyle=orthogonalEdgeStyle;rounded=0;orthogonalLoop=1;jettySize=auto;html=1;fontSize=14;fontColor=#000000;" edge="1" parent="1" source="80nOaFm1nNduMEc1qZU5-82" target="80nOaFm1nNduMEc1qZU5-87">
          <mxGeometry relative="1" as="geometry">
            <mxPoint x="-412" y="410" as="targetPoint" />
            <Array as="points">
              <mxPoint x="-412" y="430" />
              <mxPoint x="-412" y="430" />
            </Array>
          </mxGeometry>
        </mxCell>
        <mxCell id="80nOaFm1nNduMEc1qZU5-82" value="&lt;div&gt;&lt;span style=&quot;background-color: rgb(255 , 153 , 153)&quot;&gt;Enquanto a quantidade de participantes for inferior a 100,permitir o cadastro;senão,alertar que o cadastro não será permitido por ter excedido o limite.&lt;/span&gt;&lt;/div&gt;" style="rhombus;whiteSpace=wrap;html=1;fontSize=14;fontStyle=0;align=center;startSize=26;" vertex="1" parent="1">
          <mxGeometry x="-550" y="500" width="275" height="190" as="geometry" />
        </mxCell>
        <mxCell id="80nOaFm1nNduMEc1qZU5-87" value="&lt;div&gt;&lt;span&gt;&lt;i&gt;Cadastro não permitido.&lt;/i&gt;&lt;/span&gt;&lt;/div&gt;&lt;div&gt;&lt;span&gt;&lt;i&gt;Limites de participantes excedido&lt;/i&gt;&lt;/span&gt;&lt;/div&gt;" style="strokeWidth=2;html=1;shape=mxgraph.flowchart.display;whiteSpace=wrap;fontSize=14;fontColor=#ffffff;align=center;verticalAlign=middle;fillColor=#e51400;strokeColor=#B20000;" vertex="1" parent="1">
          <mxGeometry x="-500" y="340" width="138" height="100" as="geometry" />
        </mxCell>
        <mxCell id="80nOaFm1nNduMEc1qZU5-88" value="NÃO" style="text;html=1;align=center;verticalAlign=middle;resizable=0;points=[];autosize=1;strokeColor=none;fillColor=none;fontSize=14;fontColor=#000000;" vertex="1" parent="1">
          <mxGeometry x="-415" y="470" width="50" height="20" as="geometry" />
        </mxCell>
        <mxCell id="80nOaFm1nNduMEc1qZU5-90" value="" style="edgeStyle=orthogonalEdgeStyle;rounded=0;orthogonalLoop=1;jettySize=auto;html=1;fontSize=14;fontColor=#000000;" edge="1" parent="1" source="80nOaFm1nNduMEc1qZU5-89" target="80nOaFm1nNduMEc1qZU5-82">
          <mxGeometry relative="1" as="geometry" />
        </mxCell>
        <mxCell id="80nOaFm1nNduMEc1qZU5-94" value="" style="edgeStyle=orthogonalEdgeStyle;rounded=0;orthogonalLoop=1;jettySize=auto;html=1;fontSize=14;fontColor=#000000;" edge="1" parent="1" source="80nOaFm1nNduMEc1qZU5-89" target="80nOaFm1nNduMEc1qZU5-93">
          <mxGeometry relative="1" as="geometry" />
        </mxCell>
        <mxCell id="80nOaFm1nNduMEc1qZU5-89" value="Cadastro rezalido com Sucesso." style="strokeWidth=2;html=1;shape=mxgraph.flowchart.display;whiteSpace=wrap;fontSize=14;fontColor=#ffffff;align=center;verticalAlign=middle;fillColor=#6d8764;strokeColor=#3A5431;" vertex="1" parent="1">
          <mxGeometry x="-498" y="746" width="170" height="100" as="geometry" />
        </mxCell>
        <mxCell id="80nOaFm1nNduMEc1qZU5-92" value="SIM" style="text;html=1;align=center;verticalAlign=middle;resizable=0;points=[];autosize=1;strokeColor=none;fillColor=none;fontSize=14;fontColor=#000000;" vertex="1" parent="1">
          <mxGeometry x="-410" y="700" width="40" height="20" as="geometry" />
        </mxCell>
        <mxCell id="80nOaFm1nNduMEc1qZU5-93" value="Fim do Cadastro.&lt;br&gt;" style="ellipse;whiteSpace=wrap;html=1;fontSize=14;strokeWidth=2;fillColor=#0050ef;strokeColor=#001DBC;fontColor=#ffffff;" vertex="1" parent="1">
          <mxGeometry x="-473" y="946" width="120" height="64" as="geometry" />
        </mxCell>
      </root>
    </mxGraphModel>
  </diagram>
</mxfile>
